<?xml version="1.0" encoding="utf-8"?>
<!-- Generator: Adobe Illustrator 18.1.0, SVG Export Plug-In . SVG Version: 6.00 Build 0)  -->
<svg version="1.1" id="Layer_1" xmlns="http://www.w3.org/2000/svg" xmlns:xlink="http://www.w3.org/1999/xlink" x="0px" y="0px"
	 viewBox="0 0 1366 768" enable-background="new 0 0 1366 768" xml:space="preserve">
<path fill="#E8E8E8" d="M647.9,329v76h49.4c-1.4-2.3-2.2-5-2.2-7.9c0-8.8,7.3-15.9,16.4-15.9c1.5,0,2.9,0.2,4.3,0.5V329H647.9z
	 M670.3,346.4l-0.6-0.7v-1.1l0.6-0.9l0.9-0.3l1-0.3h20.2l1.3,0.8l0.4,0.8v0.9l-0.4,0.7l-0.7,0.8h-21.7L670.3,346.4z M701.7,395.1
	h8.2v-8.7l0.5-0.8l0.7-0.4h1.7l0.6,0.6l0.4,0.9v8.4h1.9v3.9h-1.9v6h-3.9v-6l-8,0l-0.1,0l-1.2-0.3l-0.6-1v-1.4l0.4-0.7l0.7-0.4
	L701.7,395.1z"/>
<polygon opacity="0.37" fill="#E8E8E8" points="701.2,395.2 700.5,395.5 700.1,396.2 700.1,397.7 700.6,398.7 701.8,399 701.9,399 
	709.9,399 709.9,405 709.9,407.6 710.3,408.4 711,408.9 712.5,408.9 713.5,408.3 713.8,407 713.8,405 713.8,399 715.8,399 
	722.2,399.1 723.1,398.6 723.7,398 723.7,396.3 723.3,395.6 722.5,395.1 715.8,395.1 713.8,395.1 713.8,386.8 713.4,385.8 
	712.8,385.3 711.1,385.3 710.4,385.6 709.9,386.4 709.9,395.1 701.7,395.1 "/>
<path fill="#E8E8E8" d="M715.8,377.5c-1.4-0.3-2.9-0.5-4.4-0.5c-11.3,0-20.4,9-20.4,20c0,2.8,0.6,5.5,1.7,8c3.2,7.1,10.4,12,18.7,12
	c11.3,0,20.4-9,20.4-20C731.8,387.4,725,379.4,715.8,377.5z M711.5,413c-6.1,0-11.4-3.2-14.2-8c-1.4-2.3-2.2-5-2.2-7.9
	c0-8.8,7.3-15.9,16.4-15.9c1.5,0,2.9,0.2,4.3,0.5c7,1.8,12.2,8,12.2,15.4C727.9,405.9,720.6,413,711.5,413z M701.7,395.1h8.2v-8.7
	l0.5-0.8l0.7-0.4h1.7l0.6,0.6l0.4,0.9v8.4h1.9h6.7l0.8,0.5l0.4,0.7v1.7l-0.6,0.6l-0.9,0.4l-6.4,0h-1.9v6v2l-0.4,1.3l-1,0.6H711
	l-0.7-0.4l-0.4-0.8V405v-6l-8,0l-0.1,0l-1.2-0.3l-0.6-1v-1.4l0.4-0.7l0.7-0.4L701.7,395.1z M701.7,395.1h8.2v-8.7l0.5-0.8l0.7-0.4
	h1.7l0.6,0.6l0.4,0.9v8.4h1.9h6.7l0.8,0.5l0.4,0.7v1.7l-0.6,0.6l-0.9,0.4l-6.4,0h-1.9v6v2l-0.4,1.3l-1,0.6H711l-0.7-0.4l-0.4-0.8
	V405v-6l-8,0l-0.1,0l-1.2-0.3l-0.6-1v-1.4l0.4-0.7l0.7-0.4L701.7,395.1z M701.7,395.1h8.2v-8.7l0.5-0.8l0.7-0.4h1.7l0.6,0.6l0.4,0.9
	v8.4h1.9h6.7l0.8,0.5l0.4,0.7v1.7l-0.6,0.6l-0.9,0.4l-6.4,0h-1.9v6v2l-0.4,1.3l-1,0.6H711l-0.7-0.4l-0.4-0.8V405v-6l-8,0l-0.1,0
	l-1.2-0.3l-0.6-1v-1.4l0.4-0.7l0.7-0.4L701.7,395.1z"/>
<polygon fill="#E8E8E8" points="715.8,330.3 729.9,358 729.1,360.5 726.8,360.5 715.8,339.2 712.3,332.7 "/>
<path fill="#E8E8E8" d="M649.6,335.8l-11.7,23.3c0,0,0,0,0,0l-0.2,0.4c0,0,0,0,0,0c-0.3,0.6-0.9,0.9-1.6,0.9c-0.8,0-1.4-0.5-1.7-1.2
	v-2l13.4-27L649.6,335.8z"/>
<ellipse fill="#E8E8E8" cx="728.6" cy="359.6" rx="2" ry="2.3"/>
<path fill="#E8E8E8" d="M670.7,343.3L670.7,343.3z"/>
<polygon fill="#E8E8E8" points="713.8,386.8 713.8,407 713.5,408.3 712.5,408.9 711,408.9 710.3,408.4 709.9,407.6 709.9,386.4 
	710.4,385.6 711.1,385.3 712.8,385.3 713.4,385.8 "/>
<polygon fill="#E8E8E8" points="701.2,395.2 700.5,395.5 700.1,396.2 700.1,397.7 700.6,398.7 701.8,399 701.9,399 709.9,399 
	713.8,399 715.8,399 722.2,399.1 723.1,398.6 723.7,398 723.7,396.3 723.3,395.6 722.5,395.1 715.8,395.1 713.8,395.1 709.9,395.1 
	701.7,395.1 "/>
<path fill="#E8E8E8" d="M638.1,358.4c0,0.3-0.1,0.5-0.1,0.8c0,0,0,0,0,0l-0.2,0.4c0,0,0,0,0,0c-0.4,0.6-0.9,0.9-1.6,0.9
	c-0.8,0-1.4-0.5-1.7-1.2c-0.1-0.3-0.2-0.6-0.2-1c0-0.3,0.1-0.7,0.2-1c0.3-0.7,1-1.2,1.7-1.2C637.2,356.3,638.1,357.2,638.1,358.4z"
	/>
<circle fill="#E8E8E8" cx="701.7" cy="397.1" r="2"/>
<circle fill="#E8E8E8" cx="711.9" cy="407.3" r="2"/>
<circle fill="#E8E8E8" cx="722.3" cy="397.1" r="2"/>
<circle fill="#E8E8E8" cx="711.9" cy="386.9" r="2"/>
</svg>
